# xmcd
#
# Track frame offsets:
#	150
#	15673
#	66937
#	108458
#	158320
#	196140
#	239424
#	272849
#	301922
#
# Disc length: 4528 seconds
# Revision: 0
# Processed by: cddbd v1.5.2PL0 Copyright (c) Steve Scherf et al.
# Submitted via: dBpowerAMP V12.0
#
DISCID=6d11ae09
DTITLE=Jane Austen - Emma CD 14
DYEAR=1900
DGENRE=
TTITLE0=101
TTITLE1=102
TTITLE2=103
TTITLE3=104
TTITLE4=105
TTITLE5=106
TTITLE6=107
TTITLE7=108
TTITLE8=109
EXTD=
EXTT0=
EXTT1=
EXTT2=
EXTT3=
EXTT4=
EXTT5=
EXTT6=
EXTT7=
EXTT8=
PLAYORDER=
